<?xml version="1.0" encoding="UTF-8" standalone="no"?>
<svg width="179px" height="103px" viewBox="0 0 179 103" version="1.1" xmlns="http://www.w3.org/2000/svg" xmlns:xlink="http://www.w3.org/1999/xlink">
    <!-- Generator: Sketch 39.1 (31720) - http://www.bohemiancoding.com/sketch -->
    <title>Group 2</title>
    <desc>Created with Sketch.</desc>
    <defs>
        <linearGradient x1="100%" y1="0%" x2="0%" y2="100%" id="linearGradient-1">
            <stop stop-color="#FF7F00" offset="0%"></stop>
            <stop stop-color="#FFB900" offset="100%"></stop>
        </linearGradient>
    </defs>
    <g id="Page-1" stroke="none" stroke-width="1" fill="none" fill-rule="evenodd">
        <g id="wilco" transform="translate(-31.000000, -39.000000)">
            <g id="Group-2">
                <rect id="Rectangle" x="0" y="0" width="243" height="180"></rect>
                <path d="M64.12,39.864 L53.176,39.864 L47.416,113.304 L42.376,39.864 L31,39.864 L39.928,140.664 L53.32,140.664 L58.072,81.048 L63.112,140.664 L76.504,140.664 L85.432,39.864 L75.064,39.864 L69.736,113.592 L64.12,39.864 Z M102.136,39.864 L90.904,39.864 L90.904,140.664 L102.136,140.664 L102.136,39.864 Z M109.192,39.864 L109.192,140.664 L132.376,140.664 L132.376,130.44 L120.424,130.44 L120.424,39.864 L109.192,39.864 Z M159.016,97.896 L159.016,127.272 C159.016,130.296 157.72,131.592 154.84,131.592 L152.68,131.592 C149.8,131.592 148.504,130.296 148.504,127.272 L148.504,53.256 C148.504,50.232 149.8,48.936 152.68,48.936 L154.552,48.936 C157.576,48.936 158.872,50.232 158.872,53.256 L158.872,80.472 L169.816,80.472 L169.816,52.536 C169.816,43.464 165.496,39 156.28,39 L150.808,39 C141.736,39 137.128,43.608 137.128,52.68 L137.128,127.848 C137.128,136.92 141.736,141.528 150.808,141.528 L156.424,141.528 C165.64,141.528 170.104,136.92 170.104,127.848 L170.104,97.896 L159.016,97.896 Z M209.56,127.704 L209.56,52.68 C209.56,43.608 205.096,39 195.88,39 L189.832,39 C180.76,39 176.152,43.608 176.152,52.68 L176.152,127.704 C176.152,136.92 180.76,141.528 189.832,141.528 L195.88,141.528 C205.096,141.528 209.56,136.92 209.56,127.704 L209.56,127.704 Z M198.328,53.256 L198.328,127.272 C198.328,130.152 196.888,131.448 194.008,131.448 L191.704,131.448 C188.824,131.448 187.528,130.152 187.528,127.272 L187.528,53.256 C187.528,50.232 188.824,48.936 191.704,48.936 L194.008,48.936 C196.888,48.936 198.328,50.232 198.328,53.256 L198.328,53.256 Z" id="WILCO" fill="url(#linearGradient-1)"></path>
            </g>
        </g>
    </g>
</svg>